# xmcd CD database file
#
# Track frame offsets:
#	183
#	13195
#	29108
#	43908
#	58208
#	72758
#	88833
#	97533
#	111383
#	123633
#	138708
#	150408
#	161883
#	172758
#	185383
#	197808
#	208958
#
# Disc length: 2942 seconds
#
# Revision: 0
# Processed by: cddbd v1.5.1PL0 Copyright (c) Steve Scherf et al.
# Submitted via: CDex 1.51
#
DISCID=fb0b7c11
DTITLE=Trio Mtamoros - beso indiscreto
DYEAR=2000
DGENRE=Salsa
TTITLE0=Beso indiscreto
TTITLE1=boinchn
TTITLE2=Pobre bohemio
TTITLE3=Mata y Beby
TTITLE4=Puro amor
TTITLE5=Las ruinas de mi bohio
TTITLE6=Sangre de conga
TTITLE7=egre peticion
TTITLE8=Porque psaron rapido aquellos dulces ratos
TTITLE9=En el ingenio
TTITLE10=El regreso del amo
TTITLE11=oy maraquero
TTITLE12=Que te estan mirando
TTITLE13=reclmo mistico
TTITLE14=Sueño infeliz
TTITLE15=Noche triunfal
TTITLE16=Alegre conga
EXTD=YEAR: 2000
EXTT0=
EXTT1=
EXTT2=
EXTT3=
EXTT4=
EXTT5=
EXTT6=
EXTT7=
EXTT8=
EXTT9=
EXTT10=
EXTT11=
EXTT12=
EXTT13=
EXTT14=
EXTT15=
EXTT16=
PLAYORDER=
